<svg width="64" height="64" viewBox="0 0 64 64" fill="none" xmlns="http://www.w3.org/2000/svg">
<path d="M21.6792 3.64384C6.04365 9.33471 -2.0461 26.6849 3.64477 42.3205C9.33565 57.956 26.6862 66.0467 42.3208 60.3562C57.9554 54.6656 66.0461 37.3151 60.3552 21.6795C54.6643 6.044 37.3147 -2.04704 21.6792 3.64384ZM20.2721 6.45885L21.3246 6.07579L24.819 8.85526L23.5169 5.27785L24.5214 4.91223L26.4713 10.2694L25.3859 10.6645L21.9549 7.95664L23.2265 11.4504L22.222 11.816L20.2721 6.45885ZM11.3462 41.5574L10.1989 41.975L7.6737 38.3586L8.06765 42.7507L6.89586 43.1772L3.66708 38.2855L4.77404 37.8826L6.92058 41.2686L6.56039 37.2324L7.84683 36.7642L10.1475 40.1644L9.60782 36.1232L10.6969 35.7268L11.3462 41.5574ZM43.3924 57.4674C43.3198 57.7972 43.1508 58.0843 42.8864 58.3284C42.6219 58.5726 42.2575 58.7787 41.7914 58.9483C41.1138 59.1949 40.5371 59.2271 40.0595 59.0466C39.5829 58.8657 39.1996 58.488 38.9113 57.9151L39.9264 57.4296C40.118 57.76 40.3411 57.9725 40.5949 58.0674C40.8487 58.1624 41.14 58.15 41.4689 58.0303C41.8175 57.9034 42.053 57.7346 42.176 57.5228C42.299 57.311 42.3247 57.1069 42.2529 56.9095C42.2067 56.7827 42.1298 56.6883 42.0234 56.627C41.9167 56.5647 41.759 56.5349 41.5499 56.5365C41.407 56.5385 41.0901 56.5655 40.5983 56.6178C39.9662 56.6851 39.495 56.6565 39.1848 56.5321C38.7485 56.3568 38.4534 56.0577 38.2991 55.6339C38.2 55.3614 38.184 55.0777 38.2525 54.7835C38.321 54.4894 38.4781 54.2279 38.7242 53.9978C38.9704 53.7677 39.2992 53.5778 39.7108 53.428C40.3836 53.1831 40.9429 53.1466 41.3905 53.3179C41.838 53.4892 42.1599 53.8179 42.3557 54.3032L41.2915 54.7448C41.1453 54.4862 40.9735 54.3242 40.7775 54.2593C40.5815 54.1945 40.3309 54.2165 40.0264 54.3273C39.7126 54.4415 39.49 54.596 39.3583 54.7897C39.2737 54.9141 39.2568 55.0459 39.3074 55.1849C39.3536 55.3118 39.4465 55.4004 39.5864 55.4516C39.7644 55.5166 40.1396 55.5152 40.7109 55.4478C41.2823 55.3803 41.7182 55.3674 42.0192 55.4079C42.3193 55.4487 42.5826 55.5583 42.8096 55.7374C43.0362 55.9157 43.2103 56.1748 43.3334 56.5131C43.4459 56.819 43.465 57.1377 43.3924 57.4674ZM39.1123 51.5409C28.3378 55.4625 16.3807 49.8868 12.4591 39.1123C8.53749 28.3378 14.1132 16.3807 24.8877 12.4591C35.6622 8.53749 47.6193 14.1132 51.5409 24.8877C55.4625 35.6622 49.8868 47.6193 39.1123 51.5409ZM54.2817 25.9301L52.3319 20.573L56.304 19.1272L56.634 20.034L53.7435 21.0861L54.1758 22.2739L56.8652 21.295L57.1936 22.1971L54.5042 23.176L55.035 24.6344L58.0279 23.545L58.3566 24.4481L54.2821 25.9311L54.2817 25.9301Z" fill="white"/>
<path d="M32 1.82401C15.361 1.82401 1.825 15.361 1.825 32C1.825 48.639 15.362 62.176 32 62.176C48.638 62.176 62.175 48.639 62.175 32C62.175 15.361 48.639 1.82401 32 1.82401ZM29.715 3.98801H30.835L33.168 7.79501V3.98801H34.237V9.68901H33.082L30.784 5.97101V9.68901H29.715V3.98801ZM9.323 33.917H8.102L6.966 29.655L5.834 33.917H4.587L3.226 28.216H4.404L5.263 32.132L6.305 28.216H7.674L8.673 32.198L9.548 28.216H10.707L9.323 33.917ZM33.995 59.828C33.814 60.113 33.557 60.325 33.225 60.464C32.893 60.603 32.48 60.672 31.984 60.672C31.263 60.672 30.71 60.505 30.323 60.172C29.937 59.839 29.706 59.353 29.631 58.716L30.751 58.607C30.818 58.983 30.955 59.259 31.161 59.435C31.367 59.611 31.645 59.699 31.995 59.699C32.366 59.699 32.645 59.621 32.833 59.464C33.021 59.307 33.115 59.124 33.115 58.914C33.115 58.779 33.075 58.664 32.996 58.57C32.917 58.475 32.779 58.393 32.582 58.323C32.447 58.276 32.14 58.193 31.66 58.074C31.043 57.921 30.61 57.733 30.361 57.51C30.011 57.196 29.836 56.814 29.836 56.363C29.836 56.073 29.918 55.801 30.083 55.548C30.248 55.295 30.485 55.103 30.795 54.971C31.105 54.839 31.479 54.773 31.917 54.773C32.633 54.773 33.171 54.93 33.533 55.244C33.895 55.558 34.085 55.977 34.103 56.5L32.952 56.551C32.903 56.258 32.797 56.047 32.635 55.919C32.473 55.791 32.23 55.726 31.906 55.726C31.572 55.726 31.31 55.795 31.12 55.932C30.998 56.02 30.937 56.138 30.937 56.286C30.937 56.421 30.994 56.536 31.108 56.632C31.253 56.754 31.606 56.881 32.166 57.013C32.726 57.145 33.14 57.282 33.409 57.423C33.677 57.564 33.887 57.757 34.039 58.003C34.191 58.248 34.266 58.551 34.266 58.911C34.267 59.237 34.176 59.543 33.995 59.828ZM32 52.795C20.534 52.795 11.205 43.466 11.205 32C11.205 20.534 20.534 11.205 32 11.205C43.466 11.205 52.795 20.534 52.795 32C52.795 43.466 43.466 52.795 32 52.795ZM55.014 33.917V28.216H59.241V29.181H56.165V30.445H59.027V31.405H56.165V32.957H59.35V33.918H55.014V33.917Z" fill="#4E545F"/>
</svg>
